P3
# P3 means colors are RGB triplets
3 4
255
255 0 0 0 255 0
0 0 255
255 255 0
255 255 255
0 0 0
0 255 255
75 75 75
127 127 127
150 150 150
0 150 0
0 0 150